<svg xmlns="http://www.w3.org/2000/svg" xmlns:xlink="http://www.w3.org/1999/xlink" width="768" zoomAndPan="magnify" viewBox="0 0 576 143.999998" height="192" preserveAspectRatio="xMidYMid meet" version="1.0"><defs><g/><clipPath id="2e1ed43656"><path d="M 81.375 65 L 494.625 65 L 494.625 88 L 81.375 88 Z M 81.375 65 " clip-rule="nonzero"/></clipPath><clipPath id="0da7f3317d"><rect x="0" width="300" y="0" height="50"/></clipPath><clipPath id="2876221f8d"><rect x="0" width="305" y="0" height="22"/></clipPath></defs><g clip-path="url(#2e1ed43656)"><path fill="#2685a6" d="M 81.375 85.472656 C 146.59375 55.5 219.304688 66.480469 288.027344 74.414062 C 339.597656 80.238281 391.730469 84.914062 443.421875 78.027344 C 460.617188 75.882812 477.671875 72.511719 494.613281 68.464844 C 474.019531 75.550781 452.648438 80.664062 431.050781 83.839844 C 383.335938 90.898438 334.863281 87.199219 287.195312 81.972656 C 218.152344 73.804688 148.875 61.464844 81.375 85.472656 Z M 81.375 85.472656 " fill-opacity="1" fill-rule="nonzero"/></g><g transform="matrix(1, 0, 0, 1, 141, 12)"><g clip-path="url(#0da7f3317d)"><g fill="#2a5f84" fill-opacity="1"><g transform="translate(0.818783, 38.898001)"><g><path d="M 3.28125 -27.609375 L 9.671875 -27.609375 L 9.671875 0 L 3.28125 0 Z M 3.28125 -27.609375 "/></g></g></g><g fill="#2a5f84" fill-opacity="1"><g transform="translate(19.282859, 38.898001)"><g/></g></g><g fill="#2a5f84" fill-opacity="1"><g transform="translate(35.971559, 38.898001)"><g><path d="M 16.484375 0.46875 C 13.671875 0.46875 11.125 -0.140625 8.84375 -1.359375 C 6.570312 -2.585938 4.785156 -4.285156 3.484375 -6.453125 C 2.179688 -8.617188 1.53125 -11.070312 1.53125 -13.8125 C 1.53125 -16.539062 2.179688 -18.988281 3.484375 -21.15625 C 4.785156 -23.332031 6.570312 -25.03125 8.84375 -26.25 C 11.125 -27.476562 13.6875 -28.09375 16.53125 -28.09375 C 18.925781 -28.09375 21.085938 -27.671875 23.015625 -26.828125 C 24.953125 -25.984375 26.578125 -24.773438 27.890625 -23.203125 L 23.796875 -19.40625 C 21.921875 -21.5625 19.601562 -22.640625 16.84375 -22.640625 C 15.132812 -22.640625 13.609375 -22.265625 12.265625 -21.515625 C 10.921875 -20.765625 9.875 -19.71875 9.125 -18.375 C 8.382812 -17.039062 8.015625 -15.519531 8.015625 -13.8125 C 8.015625 -12.101562 8.382812 -10.578125 9.125 -9.234375 C 9.875 -7.890625 10.921875 -6.84375 12.265625 -6.09375 C 13.609375 -5.34375 15.132812 -4.96875 16.84375 -4.96875 C 19.601562 -4.96875 21.921875 -6.0625 23.796875 -8.25 L 27.890625 -4.453125 C 26.578125 -2.847656 24.945312 -1.625 23 -0.78125 C 21.050781 0.0507812 18.878906 0.46875 16.484375 0.46875 Z M 16.484375 0.46875 "/></g></g></g><g fill="#2a5f84" fill-opacity="1"><g transform="translate(70.412642, 38.898001)"><g><path d="M 21.46875 -5.921875 L 8.640625 -5.921875 L 6.1875 0 L -0.359375 0 L 11.953125 -27.609375 L 18.265625 -27.609375 L 30.609375 0 L 23.90625 0 Z M 19.453125 -10.765625 L 15.078125 -21.34375 L 10.6875 -10.765625 Z M 19.453125 -10.765625 "/></g></g></g><g fill="#2a5f84" fill-opacity="1"><g transform="translate(106.157229, 38.898001)"><g><path d="M 28.609375 -27.609375 L 28.609375 0 L 23.359375 0 L 9.59375 -16.765625 L 9.59375 0 L 3.28125 0 L 3.28125 -27.609375 L 8.5625 -27.609375 L 22.296875 -10.84375 L 22.296875 -27.609375 Z M 28.609375 -27.609375 "/></g></g></g><g fill="#2a5f84" fill-opacity="1"><g transform="translate(143.557236, 38.898001)"><g/></g></g><g fill="#2a5f84" fill-opacity="1"><g transform="translate(160.245937, 38.898001)"><g><path d="M 12.34375 0.46875 C 10.164062 0.46875 8.054688 0.175781 6.015625 -0.40625 C 3.972656 -1 2.335938 -1.769531 1.109375 -2.71875 L 3.28125 -7.53125 C 4.457031 -6.664062 5.859375 -5.96875 7.484375 -5.4375 C 9.117188 -4.914062 10.753906 -4.65625 12.390625 -4.65625 C 14.203125 -4.65625 15.539062 -4.921875 16.40625 -5.453125 C 17.28125 -5.992188 17.71875 -6.710938 17.71875 -7.609375 C 17.71875 -8.265625 17.457031 -8.8125 16.9375 -9.25 C 16.425781 -9.6875 15.769531 -10.035156 14.96875 -10.296875 C 14.164062 -10.554688 13.082031 -10.847656 11.71875 -11.171875 C 9.613281 -11.671875 7.890625 -12.164062 6.546875 -12.65625 C 5.203125 -13.15625 4.050781 -13.957031 3.09375 -15.0625 C 2.132812 -16.175781 1.65625 -17.648438 1.65625 -19.484375 C 1.65625 -21.085938 2.085938 -22.539062 2.953125 -23.84375 C 3.828125 -25.144531 5.140625 -26.175781 6.890625 -26.9375 C 8.640625 -27.707031 10.773438 -28.09375 13.296875 -28.09375 C 15.054688 -28.09375 16.773438 -27.878906 18.453125 -27.453125 C 20.140625 -27.035156 21.613281 -26.429688 22.875 -25.640625 L 20.90625 -20.796875 C 18.351562 -22.242188 15.800781 -22.96875 13.25 -22.96875 C 11.46875 -22.96875 10.148438 -22.675781 9.296875 -22.09375 C 8.441406 -21.507812 8.015625 -20.75 8.015625 -19.8125 C 8.015625 -18.863281 8.503906 -18.15625 9.484375 -17.6875 C 10.472656 -17.226562 11.976562 -16.773438 14 -16.328125 C 16.101562 -15.828125 17.828125 -15.328125 19.171875 -14.828125 C 20.515625 -14.328125 21.664062 -13.535156 22.625 -12.453125 C 23.582031 -11.378906 24.0625 -9.925781 24.0625 -8.09375 C 24.0625 -6.507812 23.617188 -5.066406 22.734375 -3.765625 C 21.859375 -2.460938 20.539062 -1.429688 18.78125 -0.671875 C 17.019531 0.0859375 14.875 0.46875 12.34375 0.46875 Z M 12.34375 0.46875 "/></g></g></g><g fill="#2a5f84" fill-opacity="1"><g transform="translate(190.940769, 38.898001)"><g><path d="M 45.015625 -27.609375 L 35.984375 0 L 29.109375 0 L 23.046875 -18.703125 L 16.765625 0 L 9.9375 0 L 0.875 -27.609375 L 7.5 -27.609375 L 13.734375 -8.203125 L 20.234375 -27.609375 L 26.15625 -27.609375 L 32.46875 -8.046875 L 38.90625 -27.609375 Z M 45.015625 -27.609375 "/></g></g></g><g fill="#2a5f84" fill-opacity="1"><g transform="translate(242.346909, 38.898001)"><g><path d="M 3.28125 -27.609375 L 9.671875 -27.609375 L 9.671875 0 L 3.28125 0 Z M 3.28125 -27.609375 "/></g></g></g><g fill="#2a5f84" fill-opacity="1"><g transform="translate(260.810969, 38.898001)"><g><path d="M 28.40625 0 L 28.359375 -16.5625 L 20.234375 -2.921875 L 17.359375 -2.921875 L 9.265625 -16.21875 L 9.265625 0 L 3.28125 0 L 3.28125 -27.609375 L 8.5625 -27.609375 L 18.890625 -10.453125 L 29.078125 -27.609375 L 34.328125 -27.609375 L 34.40625 0 Z M 28.40625 0 "/></g></g></g></g></g><g transform="matrix(1, 0, 0, 1, 144, 99)"><g clip-path="url(#2876221f8d)"><g fill="#2a5f84" fill-opacity="1"><g transform="translate(1.055566, 17.129208)"><g><path d="M 8.5 -9.21875 C 8.789062 -9.21875 9.03125 -9.117188 9.21875 -8.921875 C 9.414062 -8.734375 9.515625 -8.488281 9.515625 -8.1875 L 9.515625 -1.03125 C 9.515625 -0.738281 9.414062 -0.492188 9.21875 -0.296875 C 9.03125 -0.0976562 8.789062 0 8.5 0 C 8.207031 0 7.960938 -0.0976562 7.765625 -0.296875 C 7.578125 -0.492188 7.484375 -0.738281 7.484375 -1.03125 L 7.484375 -1.859375 L 7.859375 -1.703125 C 7.859375 -1.554688 7.78125 -1.378906 7.625 -1.171875 C 7.46875 -0.960938 7.253906 -0.753906 6.984375 -0.546875 C 6.710938 -0.347656 6.394531 -0.175781 6.03125 -0.03125 C 5.664062 0.101562 5.265625 0.171875 4.828125 0.171875 C 4.054688 0.171875 3.351562 -0.0234375 2.71875 -0.421875 C 2.09375 -0.828125 1.59375 -1.378906 1.21875 -2.078125 C 0.851562 -2.785156 0.671875 -3.597656 0.671875 -4.515625 C 0.671875 -5.441406 0.851562 -6.253906 1.21875 -6.953125 C 1.59375 -7.660156 2.085938 -8.210938 2.703125 -8.609375 C 3.328125 -9.015625 4.015625 -9.21875 4.765625 -9.21875 C 5.253906 -9.21875 5.703125 -9.144531 6.109375 -9 C 6.515625 -8.851562 6.863281 -8.664062 7.15625 -8.4375 C 7.457031 -8.207031 7.6875 -7.976562 7.84375 -7.75 C 8.007812 -7.519531 8.09375 -7.328125 8.09375 -7.171875 L 7.484375 -6.953125 L 7.484375 -8.1875 C 7.484375 -8.476562 7.578125 -8.722656 7.765625 -8.921875 C 7.960938 -9.117188 8.207031 -9.21875 8.5 -9.21875 Z M 5.09375 -1.6875 C 5.582031 -1.6875 6.015625 -1.8125 6.390625 -2.0625 C 6.765625 -2.3125 7.054688 -2.648438 7.265625 -3.078125 C 7.472656 -3.503906 7.578125 -3.984375 7.578125 -4.515625 C 7.578125 -5.054688 7.472656 -5.539062 7.265625 -5.96875 C 7.054688 -6.394531 6.765625 -6.734375 6.390625 -6.984375 C 6.015625 -7.234375 5.582031 -7.359375 5.09375 -7.359375 C 4.601562 -7.359375 4.171875 -7.234375 3.796875 -6.984375 C 3.429688 -6.734375 3.144531 -6.394531 2.9375 -5.96875 C 2.726562 -5.539062 2.625 -5.054688 2.625 -4.515625 C 2.625 -3.984375 2.726562 -3.503906 2.9375 -3.078125 C 3.144531 -2.648438 3.429688 -2.3125 3.796875 -2.0625 C 4.171875 -1.8125 4.601562 -1.6875 5.09375 -1.6875 Z M 5.09375 -1.6875 "/></g></g></g><g fill="#2a5f84" fill-opacity="1"><g transform="translate(17.421436, 17.129208)"><g><path d="M 8.5 -12.515625 C 8.789062 -12.515625 9.03125 -12.414062 9.21875 -12.21875 C 9.414062 -12.03125 9.515625 -11.785156 9.515625 -11.484375 L 9.515625 -1.03125 C 9.515625 -0.738281 9.414062 -0.492188 9.21875 -0.296875 C 9.03125 -0.0976562 8.789062 0 8.5 0 C 8.207031 0 7.960938 -0.0976562 7.765625 -0.296875 C 7.578125 -0.492188 7.484375 -0.738281 7.484375 -1.03125 L 7.484375 -1.859375 L 7.859375 -1.703125 C 7.859375 -1.554688 7.78125 -1.378906 7.625 -1.171875 C 7.46875 -0.960938 7.253906 -0.753906 6.984375 -0.546875 C 6.710938 -0.347656 6.394531 -0.175781 6.03125 -0.03125 C 5.664062 0.101562 5.265625 0.171875 4.828125 0.171875 C 4.054688 0.171875 3.351562 -0.0234375 2.71875 -0.421875 C 2.09375 -0.828125 1.59375 -1.378906 1.21875 -2.078125 C 0.851562 -2.785156 0.671875 -3.597656 0.671875 -4.515625 C 0.671875 -5.441406 0.851562 -6.253906 1.21875 -6.953125 C 1.59375 -7.660156 2.085938 -8.210938 2.703125 -8.609375 C 3.328125 -9.015625 4.015625 -9.21875 4.765625 -9.21875 C 5.253906 -9.21875 5.703125 -9.144531 6.109375 -9 C 6.515625 -8.851562 6.863281 -8.664062 7.15625 -8.4375 C 7.457031 -8.207031 7.6875 -7.976562 7.84375 -7.75 C 8.007812 -7.519531 8.09375 -7.328125 8.09375 -7.171875 L 7.484375 -6.953125 L 7.484375 -11.484375 C 7.484375 -11.773438 7.578125 -12.019531 7.765625 -12.21875 C 7.960938 -12.414062 8.207031 -12.515625 8.5 -12.515625 Z M 5.09375 -1.6875 C 5.582031 -1.6875 6.015625 -1.8125 6.390625 -2.0625 C 6.765625 -2.3125 7.054688 -2.648438 7.265625 -3.078125 C 7.472656 -3.503906 7.578125 -3.984375 7.578125 -4.515625 C 7.578125 -5.054688 7.472656 -5.539062 7.265625 -5.96875 C 7.054688 -6.394531 6.765625 -6.734375 6.390625 -6.984375 C 6.015625 -7.234375 5.582031 -7.359375 5.09375 -7.359375 C 4.601562 -7.359375 4.171875 -7.234375 3.796875 -6.984375 C 3.429688 -6.734375 3.144531 -6.394531 2.9375 -5.96875 C 2.726562 -5.539062 2.625 -5.054688 2.625 -4.515625 C 2.625 -3.984375 2.726562 -3.503906 2.9375 -3.078125 C 3.144531 -2.648438 3.429688 -2.3125 3.796875 -2.0625 C 4.171875 -1.8125 4.601562 -1.6875 5.09375 -1.6875 Z M 5.09375 -1.6875 "/></g></g></g><g fill="#2a5f84" fill-opacity="1"><g transform="translate(33.787306, 17.129208)"><g><path d="M 8.5 -9.21875 C 8.789062 -9.21875 9.03125 -9.117188 9.21875 -8.921875 C 9.414062 -8.734375 9.515625 -8.488281 9.515625 -8.1875 L 9.515625 -1.03125 C 9.515625 -0.738281 9.414062 -0.492188 9.21875 -0.296875 C 9.03125 -0.0976562 8.789062 0 8.5 0 C 8.207031 0 7.960938 -0.0976562 7.765625 -0.296875 C 7.578125 -0.492188 7.484375 -0.738281 7.484375 -1.03125 L 7.484375 -1.859375 L 7.859375 -1.703125 C 7.859375 -1.554688 7.78125 -1.378906 7.625 -1.171875 C 7.46875 -0.960938 7.253906 -0.753906 6.984375 -0.546875 C 6.710938 -0.347656 6.394531 -0.175781 6.03125 -0.03125 C 5.664062 0.101562 5.265625 0.171875 4.828125 0.171875 C 4.054688 0.171875 3.351562 -0.0234375 2.71875 -0.421875 C 2.09375 -0.828125 1.59375 -1.378906 1.21875 -2.078125 C 0.851562 -2.785156 0.671875 -3.597656 0.671875 -4.515625 C 0.671875 -5.441406 0.851562 -6.253906 1.21875 -6.953125 C 1.59375 -7.660156 2.085938 -8.210938 2.703125 -8.609375 C 3.328125 -9.015625 4.015625 -9.21875 4.765625 -9.21875 C 5.253906 -9.21875 5.703125 -9.144531 6.109375 -9 C 6.515625 -8.851562 6.863281 -8.664062 7.15625 -8.4375 C 7.457031 -8.207031 7.6875 -7.976562 7.84375 -7.75 C 8.007812 -7.519531 8.09375 -7.328125 8.09375 -7.171875 L 7.484375 -6.953125 L 7.484375 -8.1875 C 7.484375 -8.476562 7.578125 -8.722656 7.765625 -8.921875 C 7.960938 -9.117188 8.207031 -9.21875 8.5 -9.21875 Z M 5.09375 -1.6875 C 5.582031 -1.6875 6.015625 -1.8125 6.390625 -2.0625 C 6.765625 -2.3125 7.054688 -2.648438 7.265625 -3.078125 C 7.472656 -3.503906 7.578125 -3.984375 7.578125 -4.515625 C 7.578125 -5.054688 7.472656 -5.539062 7.265625 -5.96875 C 7.054688 -6.394531 6.765625 -6.734375 6.390625 -6.984375 C 6.015625 -7.234375 5.582031 -7.359375 5.09375 -7.359375 C 4.601562 -7.359375 4.171875 -7.234375 3.796875 -6.984375 C 3.429688 -6.734375 3.144531 -6.394531 2.9375 -5.96875 C 2.726562 -5.539062 2.625 -5.054688 2.625 -4.515625 C 2.625 -3.984375 2.726562 -3.503906 2.9375 -3.078125 C 3.144531 -2.648438 3.429688 -2.3125 3.796875 -2.0625 C 4.171875 -1.8125 4.601562 -1.6875 5.09375 -1.6875 Z M 5.09375 -1.6875 "/></g></g></g><g fill="#2a5f84" fill-opacity="1"><g transform="translate(50.153176, 17.129208)"><g><path d="M 5.78125 -9.21875 C 6.570312 -9.21875 7.28125 -9.015625 7.90625 -8.609375 C 8.53125 -8.210938 9.023438 -7.664062 9.390625 -6.96875 C 9.753906 -6.269531 9.9375 -5.457031 9.9375 -4.53125 C 9.9375 -3.601562 9.753906 -2.785156 9.390625 -2.078125 C 9.023438 -1.378906 8.535156 -0.828125 7.921875 -0.421875 C 7.304688 -0.0234375 6.613281 0.171875 5.84375 0.171875 C 5.394531 0.171875 4.972656 0.0976562 4.578125 -0.046875 C 4.179688 -0.191406 3.832031 -0.378906 3.53125 -0.609375 C 3.238281 -0.835938 3.007812 -1.066406 2.84375 -1.296875 C 2.6875 -1.523438 2.609375 -1.71875 2.609375 -1.875 L 3.125 -2.09375 L 3.125 2.34375 C 3.125 2.644531 3.023438 2.890625 2.828125 3.078125 C 2.640625 3.273438 2.398438 3.375 2.109375 3.375 C 1.816406 3.375 1.570312 3.28125 1.375 3.09375 C 1.1875 2.90625 1.09375 2.65625 1.09375 2.34375 L 1.09375 -8.015625 C 1.09375 -8.304688 1.1875 -8.550781 1.375 -8.75 C 1.570312 -8.945312 1.816406 -9.046875 2.109375 -9.046875 C 2.398438 -9.046875 2.640625 -8.945312 2.828125 -8.75 C 3.023438 -8.550781 3.125 -8.304688 3.125 -8.015625 L 3.125 -7.1875 L 2.84375 -7.34375 C 2.84375 -7.488281 2.921875 -7.664062 3.078125 -7.875 C 3.234375 -8.082031 3.445312 -8.289062 3.71875 -8.5 C 3.988281 -8.707031 4.300781 -8.878906 4.65625 -9.015625 C 5.007812 -9.148438 5.382812 -9.21875 5.78125 -9.21875 Z M 5.53125 -7.359375 C 5.03125 -7.359375 4.59375 -7.234375 4.21875 -6.984375 C 3.851562 -6.734375 3.566406 -6.394531 3.359375 -5.96875 C 3.148438 -5.550781 3.046875 -5.070312 3.046875 -4.53125 C 3.046875 -4 3.148438 -3.515625 3.359375 -3.078125 C 3.566406 -2.648438 3.851562 -2.3125 4.21875 -2.0625 C 4.59375 -1.8125 5.03125 -1.6875 5.53125 -1.6875 C 6.019531 -1.6875 6.445312 -1.8125 6.8125 -2.0625 C 7.1875 -2.3125 7.476562 -2.648438 7.6875 -3.078125 C 7.894531 -3.515625 8 -4 8 -4.53125 C 8 -5.070312 7.894531 -5.550781 7.6875 -5.96875 C 7.476562 -6.394531 7.1875 -6.734375 6.8125 -6.984375 C 6.445312 -7.234375 6.019531 -7.359375 5.53125 -7.359375 Z M 5.53125 -7.359375 "/></g></g></g><g fill="#2a5f84" fill-opacity="1"><g transform="translate(66.519046, 17.129208)"><g><path d="M 1.203125 -8.875 L 5.203125 -8.875 C 5.472656 -8.875 5.695312 -8.78125 5.875 -8.59375 C 6.0625 -8.414062 6.15625 -8.191406 6.15625 -7.921875 C 6.15625 -7.671875 6.0625 -7.457031 5.875 -7.28125 C 5.695312 -7.101562 5.472656 -7.015625 5.203125 -7.015625 L 1.203125 -7.015625 C 0.929688 -7.015625 0.703125 -7.101562 0.515625 -7.28125 C 0.335938 -7.46875 0.25 -7.695312 0.25 -7.96875 C 0.25 -8.226562 0.335938 -8.441406 0.515625 -8.609375 C 0.703125 -8.785156 0.929688 -8.875 1.203125 -8.875 Z M 3.015625 -10.984375 C 3.304688 -10.984375 3.539062 -10.882812 3.71875 -10.6875 C 3.90625 -10.488281 4 -10.242188 4 -9.953125 L 4 -2.4375 C 4 -2.28125 4.03125 -2.148438 4.09375 -2.046875 C 4.15625 -1.941406 4.238281 -1.867188 4.34375 -1.828125 C 4.457031 -1.785156 4.578125 -1.765625 4.703125 -1.765625 C 4.835938 -1.765625 4.957031 -1.785156 5.0625 -1.828125 C 5.175781 -1.878906 5.304688 -1.90625 5.453125 -1.90625 C 5.617188 -1.90625 5.765625 -1.832031 5.890625 -1.6875 C 6.023438 -1.539062 6.09375 -1.335938 6.09375 -1.078125 C 6.09375 -0.765625 5.921875 -0.503906 5.578125 -0.296875 C 5.234375 -0.0976562 4.863281 0 4.46875 0 C 4.226562 0 3.960938 -0.0195312 3.671875 -0.0625 C 3.390625 -0.101562 3.117188 -0.195312 2.859375 -0.34375 C 2.609375 -0.5 2.398438 -0.734375 2.234375 -1.046875 C 2.066406 -1.359375 1.984375 -1.789062 1.984375 -2.34375 L 1.984375 -9.953125 C 1.984375 -10.242188 2.078125 -10.488281 2.265625 -10.6875 C 2.460938 -10.882812 2.710938 -10.984375 3.015625 -10.984375 Z M 3.015625 -10.984375 "/></g></g></g><g fill="#2a5f84" fill-opacity="1"><g transform="translate(79.183325, 17.129208)"><g><path d="M 3.015625 -1.03125 C 3.015625 -0.738281 2.914062 -0.492188 2.71875 -0.296875 C 2.53125 -0.0976562 2.289062 0 2 0 C 1.707031 0 1.460938 -0.0976562 1.265625 -0.296875 C 1.078125 -0.492188 0.984375 -0.738281 0.984375 -1.03125 L 0.984375 -8.015625 C 0.984375 -8.304688 1.078125 -8.550781 1.265625 -8.75 C 1.460938 -8.945312 1.707031 -9.046875 2 -9.046875 C 2.289062 -9.046875 2.53125 -8.945312 2.71875 -8.75 C 2.914062 -8.550781 3.015625 -8.304688 3.015625 -8.015625 Z M 1.96875 -10.140625 C 1.582031 -10.140625 1.3125 -10.203125 1.15625 -10.328125 C 1 -10.453125 0.921875 -10.671875 0.921875 -10.984375 L 0.921875 -11.3125 C 0.921875 -11.632812 1.007812 -11.851562 1.1875 -11.96875 C 1.363281 -12.09375 1.628906 -12.15625 1.984375 -12.15625 C 2.378906 -12.15625 2.65625 -12.09375 2.8125 -11.96875 C 2.96875 -11.84375 3.046875 -11.625 3.046875 -11.3125 L 3.046875 -10.984375 C 3.046875 -10.660156 2.960938 -10.4375 2.796875 -10.3125 C 2.628906 -10.195312 2.351562 -10.140625 1.96875 -10.140625 Z M 1.96875 -10.140625 "/></g></g></g><g fill="#2a5f84" fill-opacity="1"><g transform="translate(88.923522, 17.129208)"><g><path d="M 1.5 -9.046875 C 1.71875 -9.046875 1.914062 -8.988281 2.09375 -8.875 C 2.269531 -8.769531 2.40625 -8.613281 2.5 -8.40625 L 4.984375 -2.71875 L 4.609375 -2.546875 L 7.15625 -8.390625 C 7.34375 -8.835938 7.640625 -9.050781 8.046875 -9.03125 C 8.328125 -9.03125 8.554688 -8.941406 8.734375 -8.765625 C 8.910156 -8.585938 9 -8.367188 9 -8.109375 C 9 -8.035156 8.984375 -7.953125 8.953125 -7.859375 C 8.921875 -7.765625 8.890625 -7.679688 8.859375 -7.609375 L 5.703125 -0.640625 C 5.515625 -0.234375 5.222656 -0.0195312 4.828125 0 C 4.617188 0.03125 4.414062 -0.00390625 4.21875 -0.109375 C 4.019531 -0.222656 3.867188 -0.398438 3.765625 -0.640625 L 0.625 -7.609375 C 0.601562 -7.660156 0.578125 -7.734375 0.546875 -7.828125 C 0.515625 -7.921875 0.5 -8.03125 0.5 -8.15625 C 0.5 -8.351562 0.585938 -8.550781 0.765625 -8.75 C 0.953125 -8.945312 1.195312 -9.046875 1.5 -9.046875 Z M 1.5 -9.046875 "/></g></g></g><g fill="#2a5f84" fill-opacity="1"><g transform="translate(104.173847, 17.129208)"><g><path d="M 5.359375 0.171875 C 4.398438 0.171875 3.566406 -0.0234375 2.859375 -0.421875 C 2.160156 -0.828125 1.617188 -1.375 1.234375 -2.0625 C 0.859375 -2.75 0.671875 -3.523438 0.671875 -4.390625 C 0.671875 -5.410156 0.875 -6.273438 1.28125 -6.984375 C 1.695312 -7.703125 2.238281 -8.253906 2.90625 -8.640625 C 3.570312 -9.023438 4.273438 -9.21875 5.015625 -9.21875 C 5.597656 -9.21875 6.144531 -9.097656 6.65625 -8.859375 C 7.164062 -8.617188 7.617188 -8.289062 8.015625 -7.875 C 8.410156 -7.46875 8.722656 -6.992188 8.953125 -6.453125 C 9.179688 -5.910156 9.296875 -5.335938 9.296875 -4.734375 C 9.285156 -4.460938 9.175781 -4.242188 8.96875 -4.078125 C 8.769531 -3.910156 8.535156 -3.828125 8.265625 -3.828125 L 1.8125 -3.828125 L 1.296875 -5.515625 L 7.5 -5.515625 L 7.140625 -5.171875 L 7.140625 -5.625 C 7.109375 -5.957031 6.988281 -6.25 6.78125 -6.5 C 6.570312 -6.757812 6.3125 -6.96875 6 -7.125 C 5.695312 -7.28125 5.367188 -7.359375 5.015625 -7.359375 C 4.679688 -7.359375 4.367188 -7.3125 4.078125 -7.21875 C 3.785156 -7.125 3.53125 -6.96875 3.3125 -6.75 C 3.101562 -6.539062 2.9375 -6.253906 2.8125 -5.890625 C 2.6875 -5.535156 2.625 -5.082031 2.625 -4.53125 C 2.625 -3.925781 2.75 -3.410156 3 -2.984375 C 3.25 -2.554688 3.570312 -2.234375 3.96875 -2.015625 C 4.375 -1.796875 4.804688 -1.6875 5.265625 -1.6875 C 5.679688 -1.6875 6.007812 -1.71875 6.25 -1.78125 C 6.5 -1.851562 6.695312 -1.9375 6.84375 -2.03125 C 7 -2.132812 7.140625 -2.21875 7.265625 -2.28125 C 7.472656 -2.382812 7.664062 -2.4375 7.84375 -2.4375 C 8.09375 -2.4375 8.296875 -2.347656 8.453125 -2.171875 C 8.617188 -2.003906 8.703125 -1.8125 8.703125 -1.59375 C 8.703125 -1.28125 8.546875 -1.003906 8.234375 -0.765625 C 7.941406 -0.515625 7.53125 -0.296875 7 -0.109375 C 6.46875 0.078125 5.921875 0.171875 5.359375 0.171875 Z M 5.359375 0.171875 "/></g></g></g><g fill="#2a5f84" fill-opacity="1"><g transform="translate(119.897428, 17.129208)"><g/></g></g><g fill="#2a5f84" fill-opacity="1"><g transform="translate(130.381321, 17.129208)"><g><path d="M 0.578125 -1.40625 C 0.460938 -1.5625 0.410156 -1.765625 0.421875 -2.015625 C 0.429688 -2.265625 0.578125 -2.476562 0.859375 -2.65625 C 1.035156 -2.769531 1.222656 -2.816406 1.421875 -2.796875 C 1.628906 -2.773438 1.832031 -2.671875 2.03125 -2.484375 C 2.351562 -2.160156 2.691406 -1.90625 3.046875 -1.71875 C 3.410156 -1.539062 3.863281 -1.453125 4.40625 -1.453125 C 4.582031 -1.460938 4.769531 -1.488281 4.96875 -1.53125 C 5.175781 -1.570312 5.351562 -1.660156 5.5 -1.796875 C 5.65625 -1.941406 5.734375 -2.160156 5.734375 -2.453125 C 5.734375 -2.703125 5.644531 -2.898438 5.46875 -3.046875 C 5.300781 -3.191406 5.078125 -3.3125 4.796875 -3.40625 C 4.523438 -3.507812 4.222656 -3.609375 3.890625 -3.703125 C 3.535156 -3.804688 3.175781 -3.921875 2.8125 -4.046875 C 2.445312 -4.171875 2.113281 -4.328125 1.8125 -4.515625 C 1.507812 -4.710938 1.257812 -4.972656 1.0625 -5.296875 C 0.875 -5.628906 0.78125 -6.046875 0.78125 -6.546875 C 0.78125 -7.109375 0.9375 -7.585938 1.25 -7.984375 C 1.5625 -8.378906 1.96875 -8.679688 2.46875 -8.890625 C 2.976562 -9.109375 3.507812 -9.21875 4.0625 -9.21875 C 4.40625 -9.21875 4.769531 -9.171875 5.15625 -9.078125 C 5.539062 -8.992188 5.90625 -8.859375 6.25 -8.671875 C 6.601562 -8.492188 6.898438 -8.253906 7.140625 -7.953125 C 7.265625 -7.773438 7.335938 -7.566406 7.359375 -7.328125 C 7.378906 -7.097656 7.269531 -6.882812 7.03125 -6.6875 C 6.863281 -6.550781 6.664062 -6.492188 6.4375 -6.515625 C 6.21875 -6.535156 6.035156 -6.613281 5.890625 -6.75 C 5.691406 -7 5.429688 -7.195312 5.109375 -7.34375 C 4.785156 -7.488281 4.414062 -7.5625 4 -7.5625 C 3.832031 -7.5625 3.648438 -7.539062 3.453125 -7.5 C 3.253906 -7.457031 3.082031 -7.367188 2.9375 -7.234375 C 2.789062 -7.109375 2.71875 -6.90625 2.71875 -6.625 C 2.71875 -6.363281 2.800781 -6.15625 2.96875 -6 C 3.144531 -5.851562 3.375 -5.734375 3.65625 -5.640625 C 3.945312 -5.546875 4.253906 -5.453125 4.578125 -5.359375 C 4.921875 -5.265625 5.265625 -5.15625 5.609375 -5.03125 C 5.960938 -4.914062 6.285156 -4.753906 6.578125 -4.546875 C 6.867188 -4.347656 7.101562 -4.085938 7.28125 -3.765625 C 7.46875 -3.441406 7.5625 -3.03125 7.5625 -2.53125 C 7.5625 -1.957031 7.390625 -1.46875 7.046875 -1.0625 C 6.710938 -0.65625 6.289062 -0.347656 5.78125 -0.140625 C 5.269531 0.0664062 4.753906 0.171875 4.234375 0.171875 C 3.566406 0.171875 2.898438 0.0546875 2.234375 -0.171875 C 1.566406 -0.410156 1.015625 -0.820312 0.578125 -1.40625 Z M 0.578125 -1.40625 "/></g></g></g><g fill="#2a5f84" fill-opacity="1"><g transform="translate(144.279464, 17.129208)"><g><path d="M 11.515625 -9.046875 C 11.773438 -9.046875 12 -8.945312 12.1875 -8.75 C 12.382812 -8.550781 12.484375 -8.300781 12.484375 -8 C 12.484375 -7.914062 12.472656 -7.84375 12.453125 -7.78125 C 12.441406 -7.71875 12.425781 -7.660156 12.40625 -7.609375 L 9.828125 -0.640625 C 9.742188 -0.410156 9.597656 -0.238281 9.390625 -0.125 C 9.191406 -0.0078125 8.976562 0.03125 8.75 0 C 8.375 -0.0195312 8.085938 -0.234375 7.890625 -0.640625 L 6.21875 -5.453125 L 6.65625 -5.4375 L 5.09375 -0.640625 C 4.894531 -0.234375 4.609375 -0.0195312 4.234375 0 C 4.015625 0.03125 3.800781 -0.0078125 3.59375 -0.125 C 3.382812 -0.238281 3.238281 -0.410156 3.15625 -0.640625 L 0.578125 -7.609375 C 0.523438 -7.734375 0.5 -7.863281 0.5 -8 C 0.5 -8.269531 0.585938 -8.507812 0.765625 -8.71875 C 0.953125 -8.9375 1.203125 -9.046875 1.515625 -9.046875 C 1.734375 -9.046875 1.925781 -8.992188 2.09375 -8.890625 C 2.257812 -8.785156 2.378906 -8.625 2.453125 -8.40625 L 4.5 -2.859375 L 4.078125 -2.890625 L 5.609375 -7.0625 C 5.796875 -7.476562 6.109375 -7.6875 6.546875 -7.6875 C 6.796875 -7.6875 6.984375 -7.632812 7.109375 -7.53125 C 7.234375 -7.425781 7.335938 -7.269531 7.421875 -7.0625 L 8.953125 -2.890625 L 8.453125 -2.828125 L 10.53125 -8.40625 C 10.664062 -8.832031 10.992188 -9.046875 11.515625 -9.046875 Z M 11.515625 -9.046875 "/></g></g></g><g fill="#2a5f84" fill-opacity="1"><g transform="translate(163.011653, 17.129208)"><g><path d="M 3.015625 -1.03125 C 3.015625 -0.738281 2.914062 -0.492188 2.71875 -0.296875 C 2.53125 -0.0976562 2.289062 0 2 0 C 1.707031 0 1.460938 -0.0976562 1.265625 -0.296875 C 1.078125 -0.492188 0.984375 -0.738281 0.984375 -1.03125 L 0.984375 -8.015625 C 0.984375 -8.304688 1.078125 -8.550781 1.265625 -8.75 C 1.460938 -8.945312 1.707031 -9.046875 2 -9.046875 C 2.289062 -9.046875 2.53125 -8.945312 2.71875 -8.75 C 2.914062 -8.550781 3.015625 -8.304688 3.015625 -8.015625 Z M 1.96875 -10.140625 C 1.582031 -10.140625 1.3125 -10.203125 1.15625 -10.328125 C 1 -10.453125 0.921875 -10.671875 0.921875 -10.984375 L 0.921875 -11.3125 C 0.921875 -11.632812 1.007812 -11.851562 1.1875 -11.96875 C 1.363281 -12.09375 1.628906 -12.15625 1.984375 -12.15625 C 2.378906 -12.15625 2.65625 -12.09375 2.8125 -11.96875 C 2.96875 -11.84375 3.046875 -11.625 3.046875 -11.3125 L 3.046875 -10.984375 C 3.046875 -10.660156 2.960938 -10.4375 2.796875 -10.3125 C 2.628906 -10.195312 2.351562 -10.140625 1.96875 -10.140625 Z M 1.96875 -10.140625 "/></g></g></g><g fill="#2a5f84" fill-opacity="1"><g transform="translate(172.751831, 17.129208)"><g><path d="M 5.84375 -9.21875 C 6.75 -9.21875 7.414062 -9 7.84375 -8.5625 C 8.269531 -8.125 8.550781 -7.5625 8.6875 -6.875 L 8.40625 -7.03125 L 8.53125 -7.296875 C 8.664062 -7.554688 8.875 -7.835938 9.15625 -8.140625 C 9.4375 -8.441406 9.773438 -8.695312 10.171875 -8.90625 C 10.578125 -9.113281 11.03125 -9.21875 11.53125 -9.21875 C 12.34375 -9.21875 12.957031 -9.039062 13.375 -8.6875 C 13.800781 -8.34375 14.09375 -7.878906 14.25 -7.296875 C 14.40625 -6.710938 14.484375 -6.066406 14.484375 -5.359375 L 14.484375 -1.03125 C 14.484375 -0.738281 14.382812 -0.492188 14.1875 -0.296875 C 14 -0.0976562 13.757812 0 13.46875 0 C 13.175781 0 12.929688 -0.0976562 12.734375 -0.296875 C 12.546875 -0.492188 12.453125 -0.738281 12.453125 -1.03125 L 12.453125 -5.359375 C 12.453125 -5.734375 12.40625 -6.066406 12.3125 -6.359375 C 12.226562 -6.660156 12.066406 -6.898438 11.828125 -7.078125 C 11.597656 -7.265625 11.257812 -7.359375 10.8125 -7.359375 C 10.382812 -7.359375 10.019531 -7.265625 9.71875 -7.078125 C 9.414062 -6.898438 9.1875 -6.660156 9.03125 -6.359375 C 8.882812 -6.066406 8.8125 -5.734375 8.8125 -5.359375 L 8.8125 -1.03125 C 8.8125 -0.738281 8.710938 -0.492188 8.515625 -0.296875 C 8.328125 -0.0976562 8.085938 0 7.796875 0 C 7.503906 0 7.257812 -0.0976562 7.0625 -0.296875 C 6.875 -0.492188 6.78125 -0.738281 6.78125 -1.03125 L 6.78125 -5.359375 C 6.78125 -5.734375 6.734375 -6.066406 6.640625 -6.359375 C 6.554688 -6.660156 6.394531 -6.898438 6.15625 -7.078125 C 5.914062 -7.265625 5.578125 -7.359375 5.140625 -7.359375 C 4.710938 -7.359375 4.34375 -7.265625 4.03125 -7.078125 C 3.726562 -6.898438 3.5 -6.660156 3.34375 -6.359375 C 3.195312 -6.066406 3.125 -5.734375 3.125 -5.359375 L 3.125 -1.03125 C 3.125 -0.738281 3.023438 -0.492188 2.828125 -0.296875 C 2.640625 -0.0976562 2.398438 0 2.109375 0 C 1.816406 0 1.570312 -0.0976562 1.375 -0.296875 C 1.1875 -0.492188 1.09375 -0.738281 1.09375 -1.03125 L 1.09375 -8.015625 C 1.09375 -8.304688 1.1875 -8.550781 1.375 -8.75 C 1.570312 -8.945312 1.816406 -9.046875 2.109375 -9.046875 C 2.398438 -9.046875 2.640625 -8.945312 2.828125 -8.75 C 3.023438 -8.550781 3.125 -8.304688 3.125 -8.015625 L 3.125 -7.28125 L 2.875 -7.34375 C 2.976562 -7.53125 3.117188 -7.734375 3.296875 -7.953125 C 3.472656 -8.171875 3.691406 -8.375 3.953125 -8.5625 C 4.210938 -8.757812 4.5 -8.914062 4.8125 -9.03125 C 5.132812 -9.15625 5.476562 -9.21875 5.84375 -9.21875 Z M 5.84375 -9.21875 "/></g></g></g><g fill="#2a5f84" fill-opacity="1"><g transform="translate(194.086968, 17.129208)"><g/></g></g><g fill="#2a5f84" fill-opacity="1"><g transform="translate(204.570843, 17.129208)"><g><path d="M 3.296875 -1.03125 C 3.296875 -0.738281 3.195312 -0.492188 3 -0.296875 C 2.800781 -0.0976562 2.554688 0 2.265625 0 C 1.984375 0 1.742188 -0.0976562 1.546875 -0.296875 C 1.359375 -0.492188 1.265625 -0.738281 1.265625 -1.03125 L 1.265625 -11.484375 C 1.265625 -11.773438 1.363281 -12.019531 1.5625 -12.21875 C 1.757812 -12.414062 2.003906 -12.515625 2.296875 -12.515625 C 2.585938 -12.515625 2.828125 -12.414062 3.015625 -12.21875 C 3.203125 -12.019531 3.296875 -11.773438 3.296875 -11.484375 Z M 3.296875 -1.03125 "/></g></g></g><g fill="#2a5f84" fill-opacity="1"><g transform="translate(214.885723, 17.129208)"><g><path d="M 5.359375 0.171875 C 4.398438 0.171875 3.566406 -0.0234375 2.859375 -0.421875 C 2.160156 -0.828125 1.617188 -1.375 1.234375 -2.0625 C 0.859375 -2.75 0.671875 -3.523438 0.671875 -4.390625 C 0.671875 -5.410156 0.875 -6.273438 1.28125 -6.984375 C 1.695312 -7.703125 2.238281 -8.253906 2.90625 -8.640625 C 3.570312 -9.023438 4.273438 -9.21875 5.015625 -9.21875 C 5.597656 -9.21875 6.144531 -9.097656 6.65625 -8.859375 C 7.164062 -8.617188 7.617188 -8.289062 8.015625 -7.875 C 8.410156 -7.46875 8.722656 -6.992188 8.953125 -6.453125 C 9.179688 -5.910156 9.296875 -5.335938 9.296875 -4.734375 C 9.285156 -4.460938 9.175781 -4.242188 8.96875 -4.078125 C 8.769531 -3.910156 8.535156 -3.828125 8.265625 -3.828125 L 1.8125 -3.828125 L 1.296875 -5.515625 L 7.5 -5.515625 L 7.140625 -5.171875 L 7.140625 -5.625 C 7.109375 -5.957031 6.988281 -6.25 6.78125 -6.5 C 6.570312 -6.757812 6.3125 -6.96875 6 -7.125 C 5.695312 -7.28125 5.367188 -7.359375 5.015625 -7.359375 C 4.679688 -7.359375 4.367188 -7.3125 4.078125 -7.21875 C 3.785156 -7.125 3.53125 -6.96875 3.3125 -6.75 C 3.101562 -6.539062 2.9375 -6.253906 2.8125 -5.890625 C 2.6875 -5.535156 2.625 -5.082031 2.625 -4.53125 C 2.625 -3.925781 2.75 -3.410156 3 -2.984375 C 3.25 -2.554688 3.570312 -2.234375 3.96875 -2.015625 C 4.375 -1.796875 4.804688 -1.6875 5.265625 -1.6875 C 5.679688 -1.6875 6.007812 -1.71875 6.25 -1.78125 C 6.5 -1.851562 6.695312 -1.9375 6.84375 -2.03125 C 7 -2.132812 7.140625 -2.21875 7.265625 -2.28125 C 7.472656 -2.382812 7.664062 -2.4375 7.84375 -2.4375 C 8.09375 -2.4375 8.296875 -2.347656 8.453125 -2.171875 C 8.617188 -2.003906 8.703125 -1.8125 8.703125 -1.59375 C 8.703125 -1.28125 8.546875 -1.003906 8.234375 -0.765625 C 7.941406 -0.515625 7.53125 -0.296875 7 -0.109375 C 6.46875 0.078125 5.921875 0.171875 5.359375 0.171875 Z M 5.359375 0.171875 "/></g></g></g><g fill="#2a5f84" fill-opacity="1"><g transform="translate(230.609295, 17.129208)"><g><path d="M 0.578125 -1.40625 C 0.460938 -1.5625 0.410156 -1.765625 0.421875 -2.015625 C 0.429688 -2.265625 0.578125 -2.476562 0.859375 -2.65625 C 1.035156 -2.769531 1.222656 -2.816406 1.421875 -2.796875 C 1.628906 -2.773438 1.832031 -2.671875 2.03125 -2.484375 C 2.351562 -2.160156 2.691406 -1.90625 3.046875 -1.71875 C 3.410156 -1.539062 3.863281 -1.453125 4.40625 -1.453125 C 4.582031 -1.460938 4.769531 -1.488281 4.96875 -1.53125 C 5.175781 -1.570312 5.351562 -1.660156 5.5 -1.796875 C 5.65625 -1.941406 5.734375 -2.160156 5.734375 -2.453125 C 5.734375 -2.703125 5.644531 -2.898438 5.46875 -3.046875 C 5.300781 -3.191406 5.078125 -3.3125 4.796875 -3.40625 C 4.523438 -3.507812 4.222656 -3.609375 3.890625 -3.703125 C 3.535156 -3.804688 3.175781 -3.921875 2.8125 -4.046875 C 2.445312 -4.171875 2.113281 -4.328125 1.8125 -4.515625 C 1.507812 -4.710938 1.257812 -4.972656 1.0625 -5.296875 C 0.875 -5.628906 0.78125 -6.046875 0.78125 -6.546875 C 0.78125 -7.109375 0.9375 -7.585938 1.25 -7.984375 C 1.5625 -8.378906 1.96875 -8.679688 2.46875 -8.890625 C 2.976562 -9.109375 3.507812 -9.21875 4.0625 -9.21875 C 4.40625 -9.21875 4.769531 -9.171875 5.15625 -9.078125 C 5.539062 -8.992188 5.90625 -8.859375 6.25 -8.671875 C 6.601562 -8.492188 6.898438 -8.253906 7.140625 -7.953125 C 7.265625 -7.773438 7.335938 -7.566406 7.359375 -7.328125 C 7.378906 -7.097656 7.269531 -6.882812 7.03125 -6.6875 C 6.863281 -6.550781 6.664062 -6.492188 6.4375 -6.515625 C 6.21875 -6.535156 6.035156 -6.613281 5.890625 -6.75 C 5.691406 -7 5.429688 -7.195312 5.109375 -7.34375 C 4.785156 -7.488281 4.414062 -7.5625 4 -7.5625 C 3.832031 -7.5625 3.648438 -7.539062 3.453125 -7.5 C 3.253906 -7.457031 3.082031 -7.367188 2.9375 -7.234375 C 2.789062 -7.109375 2.71875 -6.90625 2.71875 -6.625 C 2.71875 -6.363281 2.800781 -6.15625 2.96875 -6 C 3.144531 -5.851562 3.375 -5.734375 3.65625 -5.640625 C 3.945312 -5.546875 4.253906 -5.453125 4.578125 -5.359375 C 4.921875 -5.265625 5.265625 -5.15625 5.609375 -5.03125 C 5.960938 -4.914062 6.285156 -4.753906 6.578125 -4.546875 C 6.867188 -4.347656 7.101562 -4.085938 7.28125 -3.765625 C 7.46875 -3.441406 7.5625 -3.03125 7.5625 -2.53125 C 7.5625 -1.957031 7.390625 -1.46875 7.046875 -1.0625 C 6.710938 -0.65625 6.289062 -0.347656 5.78125 -0.140625 C 5.269531 0.0664062 4.753906 0.171875 4.234375 0.171875 C 3.566406 0.171875 2.898438 0.0546875 2.234375 -0.171875 C 1.566406 -0.410156 1.015625 -0.820312 0.578125 -1.40625 Z M 0.578125 -1.40625 "/></g></g></g><g fill="#2a5f84" fill-opacity="1"><g transform="translate(244.507447, 17.129208)"><g><path d="M 0.578125 -1.40625 C 0.460938 -1.5625 0.410156 -1.765625 0.421875 -2.015625 C 0.429688 -2.265625 0.578125 -2.476562 0.859375 -2.65625 C 1.035156 -2.769531 1.222656 -2.816406 1.421875 -2.796875 C 1.628906 -2.773438 1.832031 -2.671875 2.03125 -2.484375 C 2.351562 -2.160156 2.691406 -1.90625 3.046875 -1.71875 C 3.410156 -1.539062 3.863281 -1.453125 4.40625 -1.453125 C 4.582031 -1.460938 4.769531 -1.488281 4.96875 -1.53125 C 5.175781 -1.570312 5.351562 -1.660156 5.5 -1.796875 C 5.65625 -1.941406 5.734375 -2.160156 5.734375 -2.453125 C 5.734375 -2.703125 5.644531 -2.898438 5.46875 -3.046875 C 5.300781 -3.191406 5.078125 -3.3125 4.796875 -3.40625 C 4.523438 -3.507812 4.222656 -3.609375 3.890625 -3.703125 C 3.535156 -3.804688 3.175781 -3.921875 2.8125 -4.046875 C 2.445312 -4.171875 2.113281 -4.328125 1.8125 -4.515625 C 1.507812 -4.710938 1.257812 -4.972656 1.0625 -5.296875 C 0.875 -5.628906 0.78125 -6.046875 0.78125 -6.546875 C 0.78125 -7.109375 0.9375 -7.585938 1.25 -7.984375 C 1.5625 -8.378906 1.96875 -8.679688 2.46875 -8.890625 C 2.976562 -9.109375 3.507812 -9.21875 4.0625 -9.21875 C 4.40625 -9.21875 4.769531 -9.171875 5.15625 -9.078125 C 5.539062 -8.992188 5.90625 -8.859375 6.25 -8.671875 C 6.601562 -8.492188 6.898438 -8.253906 7.140625 -7.953125 C 7.265625 -7.773438 7.335938 -7.566406 7.359375 -7.328125 C 7.378906 -7.097656 7.269531 -6.882812 7.03125 -6.6875 C 6.863281 -6.550781 6.664062 -6.492188 6.4375 -6.515625 C 6.21875 -6.535156 6.035156 -6.613281 5.890625 -6.75 C 5.691406 -7 5.429688 -7.195312 5.109375 -7.34375 C 4.785156 -7.488281 4.414062 -7.5625 4 -7.5625 C 3.832031 -7.5625 3.648438 -7.539062 3.453125 -7.5 C 3.253906 -7.457031 3.082031 -7.367188 2.9375 -7.234375 C 2.789062 -7.109375 2.71875 -6.90625 2.71875 -6.625 C 2.71875 -6.363281 2.800781 -6.15625 2.96875 -6 C 3.144531 -5.851562 3.375 -5.734375 3.65625 -5.640625 C 3.945312 -5.546875 4.253906 -5.453125 4.578125 -5.359375 C 4.921875 -5.265625 5.265625 -5.15625 5.609375 -5.03125 C 5.960938 -4.914062 6.285156 -4.753906 6.578125 -4.546875 C 6.867188 -4.347656 7.101562 -4.085938 7.28125 -3.765625 C 7.46875 -3.441406 7.5625 -3.03125 7.5625 -2.53125 C 7.5625 -1.957031 7.390625 -1.46875 7.046875 -1.0625 C 6.710938 -0.65625 6.289062 -0.347656 5.78125 -0.140625 C 5.269531 0.0664062 4.753906 0.171875 4.234375 0.171875 C 3.566406 0.171875 2.898438 0.0546875 2.234375 -0.171875 C 1.566406 -0.410156 1.015625 -0.820312 0.578125 -1.40625 Z M 0.578125 -1.40625 "/></g></g></g><g fill="#2a5f84" fill-opacity="1"><g transform="translate(258.405599, 17.129208)"><g><path d="M 9.875 -4.515625 C 9.875 -3.585938 9.664062 -2.769531 9.25 -2.0625 C 8.84375 -1.363281 8.289062 -0.816406 7.59375 -0.421875 C 6.90625 -0.0234375 6.132812 0.171875 5.28125 0.171875 C 4.414062 0.171875 3.632812 -0.0234375 2.9375 -0.421875 C 2.25 -0.816406 1.695312 -1.363281 1.28125 -2.0625 C 0.875 -2.769531 0.671875 -3.585938 0.671875 -4.515625 C 0.671875 -5.441406 0.875 -6.253906 1.28125 -6.953125 C 1.695312 -7.660156 2.25 -8.210938 2.9375 -8.609375 C 3.632812 -9.015625 4.414062 -9.21875 5.28125 -9.21875 C 6.132812 -9.21875 6.90625 -9.015625 7.59375 -8.609375 C 8.289062 -8.210938 8.84375 -7.660156 9.25 -6.953125 C 9.664062 -6.253906 9.875 -5.441406 9.875 -4.515625 Z M 7.84375 -4.515625 C 7.84375 -5.085938 7.726562 -5.582031 7.5 -6 C 7.269531 -6.425781 6.957031 -6.757812 6.5625 -7 C 6.175781 -7.238281 5.75 -7.359375 5.28125 -7.359375 C 4.800781 -7.359375 4.363281 -7.238281 3.96875 -7 C 3.582031 -6.757812 3.273438 -6.425781 3.046875 -6 C 2.816406 -5.582031 2.703125 -5.085938 2.703125 -4.515625 C 2.703125 -3.953125 2.816406 -3.457031 3.046875 -3.03125 C 3.273438 -2.613281 3.582031 -2.285156 3.96875 -2.046875 C 4.363281 -1.804688 4.800781 -1.6875 5.28125 -1.6875 C 5.75 -1.6875 6.175781 -1.804688 6.5625 -2.046875 C 6.957031 -2.285156 7.269531 -2.613281 7.5 -3.03125 C 7.726562 -3.457031 7.84375 -3.953125 7.84375 -4.515625 Z M 7.84375 -4.515625 "/></g></g></g><g fill="#2a5f84" fill-opacity="1"><g transform="translate(274.703854, 17.129208)"><g><path d="M 5.9375 -9.21875 C 6.769531 -9.21875 7.398438 -9.039062 7.828125 -8.6875 C 8.265625 -8.34375 8.566406 -7.878906 8.734375 -7.296875 C 8.898438 -6.710938 8.984375 -6.066406 8.984375 -5.359375 L 8.984375 -1.03125 C 8.984375 -0.738281 8.882812 -0.492188 8.6875 -0.296875 C 8.5 -0.0976562 8.257812 0 7.96875 0 C 7.664062 0 7.421875 -0.0976562 7.234375 -0.296875 C 7.046875 -0.492188 6.953125 -0.738281 6.953125 -1.03125 L 6.953125 -5.359375 C 6.953125 -5.734375 6.898438 -6.066406 6.796875 -6.359375 C 6.703125 -6.660156 6.53125 -6.898438 6.28125 -7.078125 C 6.039062 -7.265625 5.6875 -7.359375 5.21875 -7.359375 C 4.769531 -7.359375 4.390625 -7.265625 4.078125 -7.078125 C 3.773438 -6.898438 3.539062 -6.660156 3.375 -6.359375 C 3.207031 -6.066406 3.125 -5.734375 3.125 -5.359375 L 3.125 -1.03125 C 3.125 -0.738281 3.023438 -0.492188 2.828125 -0.296875 C 2.640625 -0.0976562 2.398438 0 2.109375 0 C 1.816406 0 1.570312 -0.0976562 1.375 -0.296875 C 1.1875 -0.492188 1.09375 -0.738281 1.09375 -1.03125 L 1.09375 -8.015625 C 1.09375 -8.304688 1.1875 -8.550781 1.375 -8.75 C 1.570312 -8.945312 1.816406 -9.046875 2.109375 -9.046875 C 2.398438 -9.046875 2.640625 -8.945312 2.828125 -8.75 C 3.023438 -8.550781 3.125 -8.304688 3.125 -8.015625 L 3.125 -7.28125 L 2.875 -7.34375 C 2.976562 -7.53125 3.125 -7.734375 3.3125 -7.953125 C 3.5 -8.171875 3.722656 -8.375 3.984375 -8.5625 C 4.242188 -8.757812 4.535156 -8.914062 4.859375 -9.03125 C 5.191406 -9.15625 5.550781 -9.21875 5.9375 -9.21875 Z M 5.9375 -9.21875 "/></g></g></g><g fill="#2a5f84" fill-opacity="1"><g transform="translate(290.528853, 17.129208)"><g><path d="M 0.578125 -1.40625 C 0.460938 -1.5625 0.410156 -1.765625 0.421875 -2.015625 C 0.429688 -2.265625 0.578125 -2.476562 0.859375 -2.65625 C 1.035156 -2.769531 1.222656 -2.816406 1.421875 -2.796875 C 1.628906 -2.773438 1.832031 -2.671875 2.03125 -2.484375 C 2.351562 -2.160156 2.691406 -1.90625 3.046875 -1.71875 C 3.410156 -1.539062 3.863281 -1.453125 4.40625 -1.453125 C 4.582031 -1.460938 4.769531 -1.488281 4.96875 -1.53125 C 5.175781 -1.570312 5.351562 -1.660156 5.5 -1.796875 C 5.65625 -1.941406 5.734375 -2.160156 5.734375 -2.453125 C 5.734375 -2.703125 5.644531 -2.898438 5.46875 -3.046875 C 5.300781 -3.191406 5.078125 -3.3125 4.796875 -3.40625 C 4.523438 -3.507812 4.222656 -3.609375 3.890625 -3.703125 C 3.535156 -3.804688 3.175781 -3.921875 2.8125 -4.046875 C 2.445312 -4.171875 2.113281 -4.328125 1.8125 -4.515625 C 1.507812 -4.710938 1.257812 -4.972656 1.0625 -5.296875 C 0.875 -5.628906 0.78125 -6.046875 0.78125 -6.546875 C 0.78125 -7.109375 0.9375 -7.585938 1.25 -7.984375 C 1.5625 -8.378906 1.96875 -8.679688 2.46875 -8.890625 C 2.976562 -9.109375 3.507812 -9.21875 4.0625 -9.21875 C 4.40625 -9.21875 4.769531 -9.171875 5.15625 -9.078125 C 5.539062 -8.992188 5.90625 -8.859375 6.25 -8.671875 C 6.601562 -8.492188 6.898438 -8.253906 7.140625 -7.953125 C 7.265625 -7.773438 7.335938 -7.566406 7.359375 -7.328125 C 7.378906 -7.097656 7.269531 -6.882812 7.03125 -6.6875 C 6.863281 -6.550781 6.664062 -6.492188 6.4375 -6.515625 C 6.21875 -6.535156 6.035156 -6.613281 5.890625 -6.75 C 5.691406 -7 5.429688 -7.195312 5.109375 -7.34375 C 4.785156 -7.488281 4.414062 -7.5625 4 -7.5625 C 3.832031 -7.5625 3.648438 -7.539062 3.453125 -7.5 C 3.253906 -7.457031 3.082031 -7.367188 2.9375 -7.234375 C 2.789062 -7.109375 2.71875 -6.90625 2.71875 -6.625 C 2.71875 -6.363281 2.800781 -6.15625 2.96875 -6 C 3.144531 -5.851562 3.375 -5.734375 3.65625 -5.640625 C 3.945312 -5.546875 4.253906 -5.453125 4.578125 -5.359375 C 4.921875 -5.265625 5.265625 -5.15625 5.609375 -5.03125 C 5.960938 -4.914062 6.285156 -4.753906 6.578125 -4.546875 C 6.867188 -4.347656 7.101562 -4.085938 7.28125 -3.765625 C 7.46875 -3.441406 7.5625 -3.03125 7.5625 -2.53125 C 7.5625 -1.957031 7.390625 -1.46875 7.046875 -1.0625 C 6.710938 -0.65625 6.289062 -0.347656 5.78125 -0.140625 C 5.269531 0.0664062 4.753906 0.171875 4.234375 0.171875 C 3.566406 0.171875 2.898438 0.0546875 2.234375 -0.171875 C 1.566406 -0.410156 1.015625 -0.820312 0.578125 -1.40625 Z M 0.578125 -1.40625 "/></g></g></g></g></g></svg>