<svg xmlns="http://www.w3.org/2000/svg" xmlns:xlink="http://www.w3.org/1999/xlink" width="500" zoomAndPan="magnify" viewBox="0 0 375 374.999991" height="500" preserveAspectRatio="xMidYMid meet" version="1.0"><defs><g/><clipPath id="51b20e176c"><path d="M 35.4375 32 L 334.6875 32 L 334.6875 342 L 35.4375 342 Z M 35.4375 32 " clip-rule="nonzero"/></clipPath><clipPath id="501577f234"><path d="M 53.886719 194 L 320.886719 194 L 320.886719 209 L 53.886719 209 Z M 53.886719 194 " clip-rule="nonzero"/></clipPath></defs><g clip-path="url(#51b20e176c)"><path fill="#2a5f84" d="M 147.578125 37.589844 C 150.007812 36.980469 152.445312 36.429688 154.902344 35.941406 C 157.355469 35.449219 159.820312 35.019531 162.292969 34.648438 C 164.769531 34.277344 167.25 33.96875 169.738281 33.71875 C 172.230469 33.46875 174.722656 33.28125 177.222656 33.152344 C 179.722656 33.023438 182.222656 32.953125 184.722656 32.945312 C 187.226562 32.941406 189.726562 32.992188 192.226562 33.109375 C 194.726562 33.222656 197.222656 33.398438 199.710938 33.632812 C 202.203125 33.867188 204.6875 34.164062 207.164062 34.519531 C 209.640625 34.875 212.109375 35.292969 214.5625 35.769531 C 217.019531 36.246094 219.464844 36.78125 221.894531 37.375 C 224.324219 37.96875 226.738281 38.625 229.136719 39.335938 C 231.535156 40.046875 233.917969 40.820312 236.277344 41.644531 C 238.640625 42.472656 240.980469 43.359375 243.296875 44.300781 C 245.617188 45.242188 247.910156 46.238281 250.179688 47.292969 C 252.449219 48.34375 254.691406 49.453125 256.910156 50.613281 C 259.125 51.777344 261.3125 52.992188 263.46875 54.261719 C 265.625 55.527344 267.75 56.847656 269.84375 58.21875 C 271.9375 59.589844 273.992188 61.011719 276.019531 62.484375 C 278.042969 63.957031 280.027344 65.476562 281.976562 67.042969 C 283.929688 68.609375 285.839844 70.226562 287.710938 71.886719 C 289.582031 73.546875 291.410156 75.253906 293.199219 77.003906 C 294.988281 78.753906 296.734375 80.542969 298.4375 82.378906 C 300.136719 84.214844 301.792969 86.089844 303.402344 88.003906 C 305.015625 89.917969 306.578125 91.871094 308.09375 93.863281 C 309.609375 95.855469 311.074219 97.878906 312.492188 99.941406 C 313.910156 102.003906 315.273438 104.101562 316.589844 106.230469 C 317.90625 108.359375 319.167969 110.515625 320.378906 112.707031 C 321.589844 114.898438 322.746094 117.113281 323.847656 119.359375 C 324.949219 121.609375 326 123.878906 326.992188 126.175781 C 327.984375 128.472656 328.917969 130.792969 329.796875 133.136719 C 330.675781 135.476562 331.5 137.839844 332.265625 140.222656 C 333.027344 142.605469 333.734375 145.003906 334.382812 147.421875 C 334.625 148.3125 334.859375 149.222656 335.085938 150.152344 L 332.722656 150.972656 C 332.484375 150.003906 332.234375 149.035156 331.976562 148.0625 C 331.332031 145.667969 330.632812 143.289062 329.875 140.929688 C 329.117188 138.566406 328.300781 136.226562 327.429688 133.90625 C 326.554688 131.582031 325.628906 129.285156 324.640625 127.007812 C 323.65625 124.734375 322.617188 122.484375 321.519531 120.257812 C 320.425781 118.035156 319.277344 115.835938 318.074219 113.667969 C 316.871094 111.5 315.613281 109.363281 314.304688 107.253906 C 313 105.148438 311.640625 103.074219 310.230469 101.03125 C 308.820312 98.992188 307.363281 96.988281 305.855469 95.019531 C 304.347656 93.046875 302.792969 91.117188 301.191406 89.222656 C 299.589844 87.332031 297.941406 85.480469 296.25 83.667969 C 294.554688 81.855469 292.820312 80.082031 291.039062 78.355469 C 289.261719 76.628906 287.441406 74.945312 285.578125 73.308594 C 283.714844 71.667969 281.816406 70.078125 279.875 68.53125 C 277.9375 66.988281 275.960938 65.492188 273.945312 64.042969 C 271.933594 62.59375 269.886719 61.195312 267.804688 59.847656 C 265.722656 58.5 263.609375 57.203125 261.464844 55.957031 C 259.320312 54.714844 257.144531 53.523438 254.941406 52.382812 C 252.738281 51.246094 250.507812 50.160156 248.253906 49.132812 C 245.996094 48.105469 243.714844 47.128906 241.410156 46.214844 C 239.105469 45.296875 236.78125 44.433594 234.4375 43.632812 C 232.089844 42.828125 229.726562 42.082031 227.34375 41.394531 C 224.960938 40.707031 222.5625 40.078125 220.148438 39.507812 C 217.734375 38.9375 215.308594 38.425781 212.871094 37.976562 C 210.429688 37.523438 207.984375 37.132812 205.527344 36.800781 C 203.066406 36.46875 200.605469 36.195312 198.132812 35.984375 C 195.660156 35.773438 193.1875 35.625 190.707031 35.535156 C 188.230469 35.445312 185.75 35.414062 183.269531 35.445312 C 180.792969 35.480469 178.3125 35.570312 175.839844 35.722656 C 173.363281 35.875 170.894531 36.089844 168.429688 36.363281 C 165.964844 36.636719 163.507812 36.972656 161.058594 37.367188 C 158.609375 37.757812 156.171875 38.214844 153.746094 38.726562 C 151.320312 39.238281 148.90625 39.8125 146.507812 40.445312 C 146.882812 39.5 147.246094 38.558594 147.578125 37.59375 Z M 37.800781 224.34375 C 38 225.140625 38.199219 225.929688 38.414062 226.726562 C 39.058594 229.128906 39.761719 231.511719 40.519531 233.878906 C 41.28125 236.246094 42.097656 238.59375 42.976562 240.917969 C 43.851562 243.246094 44.785156 245.550781 45.773438 247.832031 C 46.761719 250.113281 47.804688 252.367188 48.90625 254.597656 C 50.003906 256.828125 51.15625 259.03125 52.367188 261.203125 C 53.574219 263.375 54.832031 265.519531 56.144531 267.628906 C 57.457031 269.742188 58.824219 271.820312 60.238281 273.863281 C 61.652344 275.910156 63.117188 277.917969 64.628906 279.890625 C 66.140625 281.863281 67.703125 283.796875 69.3125 285.691406 C 70.917969 287.589844 72.574219 289.445312 74.273438 291.257812 C 75.972656 293.074219 77.714844 294.847656 79.5 296.574219 C 81.289062 298.304688 83.117188 299.988281 84.984375 301.628906 C 86.851562 303.269531 88.761719 304.859375 90.707031 306.40625 C 92.65625 307.953125 94.640625 309.449219 96.660156 310.898438 C 98.679688 312.347656 100.734375 313.746094 102.824219 315.09375 C 104.914062 316.441406 107.035156 317.738281 109.1875 318.980469 C 111.339844 320.222656 113.523438 321.414062 115.734375 322.550781 C 117.945312 323.6875 120.183594 324.769531 122.449219 325.796875 C 124.710938 326.820312 127 327.792969 129.3125 328.707031 C 131.625 329.621094 133.957031 330.476562 136.3125 331.277344 C 138.664062 332.078125 141.039062 332.820312 143.429688 333.503906 C 145.820312 334.1875 148.222656 334.8125 150.644531 335.375 C 153.066406 335.941406 155.5 336.449219 157.945312 336.894531 C 160.390625 337.339844 162.847656 337.726562 165.3125 338.050781 C 167.777344 338.375 170.25 338.640625 172.726562 338.84375 C 175.203125 339.050781 177.683594 339.191406 180.171875 339.273438 C 182.65625 339.355469 185.140625 339.378906 187.625 339.339844 C 190.113281 339.296875 192.597656 339.199219 195.078125 339.035156 C 197.558594 338.875 200.035156 338.652344 202.503906 338.371094 C 204.972656 338.085938 207.433594 337.742188 209.886719 337.339844 C 212.339844 336.933594 214.785156 336.472656 217.214844 335.949219 C 219.644531 335.425781 222.0625 334.839844 224.460938 334.199219 C 224.074219 335.140625 223.699219 336.089844 223.351562 337.054688 C 220.921875 337.671875 218.476562 338.234375 216.019531 338.734375 C 213.5625 339.234375 211.09375 339.671875 208.617188 340.054688 C 206.136719 340.433594 203.648438 340.75 201.15625 341.011719 C 198.660156 341.269531 196.160156 341.46875 193.65625 341.605469 C 191.152344 341.742188 188.648438 341.816406 186.140625 341.832031 C 183.628906 341.847656 181.125 341.800781 178.617188 341.691406 C 176.113281 341.585938 173.609375 341.417969 171.113281 341.1875 C 168.617188 340.960938 166.125 340.671875 163.640625 340.320312 C 161.160156 339.96875 158.6875 339.558594 156.222656 339.089844 C 153.757812 338.617188 151.308594 338.085938 148.871094 337.496094 C 146.433594 336.90625 144.011719 336.257812 141.605469 335.550781 C 139.199219 334.839844 136.8125 334.074219 134.445312 333.25 C 132.074219 332.425781 129.726562 331.546875 127.402344 330.605469 C 125.078125 329.667969 122.777344 328.671875 120.5 327.621094 C 118.222656 326.570312 115.96875 325.464844 113.746094 324.304688 C 111.523438 323.144531 109.328125 321.933594 107.164062 320.664062 C 105 319.398438 102.871094 318.078125 100.769531 316.707031 C 98.667969 315.335938 96.605469 313.914062 94.574219 312.445312 C 92.542969 310.972656 90.546875 309.453125 88.589844 307.882812 C 86.632812 306.316406 84.71875 304.699219 82.839844 303.039062 C 80.960938 301.375 79.125 299.667969 77.328125 297.917969 C 75.535156 296.164062 73.78125 294.371094 72.074219 292.535156 C 70.367188 290.699219 68.707031 288.820312 67.089844 286.902344 C 65.472656 284.984375 63.90625 283.03125 62.382812 281.035156 C 60.863281 279.042969 59.390625 277.011719 57.96875 274.945312 C 56.546875 272.878906 55.175781 270.78125 53.855469 268.648438 C 52.535156 266.515625 51.269531 264.351562 50.054688 262.15625 C 48.839844 259.964844 47.679688 257.742188 46.574219 255.488281 C 45.46875 253.238281 44.417969 250.964844 43.421875 248.660156 C 42.425781 246.359375 41.488281 244.035156 40.605469 241.6875 C 39.722656 239.339844 38.898438 236.972656 38.132812 234.582031 C 37.363281 232.195312 36.65625 229.789062 36.007812 227.367188 C 35.8125 226.640625 35.625 225.902344 35.4375 225.175781 Z M 37.800781 224.34375 " fill-opacity="1" fill-rule="evenodd"/></g><g clip-path="url(#501577f234)"><path fill="#23a1c0" d="M 53.886719 206.957031 C 96.058594 187.574219 143.082031 194.671875 187.519531 199.804688 C 220.867188 203.570312 254.582031 206.59375 288.007812 202.140625 C 299.125 200.753906 310.15625 198.574219 321.109375 195.957031 C 307.792969 200.539062 293.972656 203.84375 280.003906 205.898438 C 249.152344 210.460938 217.808594 208.070312 186.984375 204.691406 C 142.335938 199.410156 97.535156 191.429688 53.886719 206.957031 Z M 53.886719 206.957031 " fill-opacity="1" fill-rule="nonzero"/></g><g fill="#2a5f84" fill-opacity="1"><g transform="translate(105.208851, 166.470927)"><g><path d="M 24.828125 -15.140625 C 26.484375 -14.609375 27.78125 -13.722656 28.71875 -12.484375 C 29.664062 -11.253906 30.140625 -9.738281 30.140625 -7.9375 C 30.140625 -5.382812 29.148438 -3.421875 27.171875 -2.046875 C 25.191406 -0.679688 22.300781 0 18.5 0 L 3.453125 0 L 3.453125 -29.109375 L 17.671875 -29.109375 C 21.222656 -29.109375 23.945312 -28.425781 25.84375 -27.0625 C 27.738281 -25.707031 28.6875 -23.863281 28.6875 -21.53125 C 28.6875 -20.125 28.347656 -18.863281 27.671875 -17.75 C 26.992188 -16.644531 26.046875 -15.773438 24.828125 -15.140625 Z M 10.140625 -24.03125 L 10.140625 -17.171875 L 16.84375 -17.171875 C 18.5 -17.171875 19.753906 -17.460938 20.609375 -18.046875 C 21.472656 -18.628906 21.90625 -19.488281 21.90625 -20.625 C 21.90625 -21.757812 21.472656 -22.609375 20.609375 -23.171875 C 19.753906 -23.742188 18.5 -24.03125 16.84375 -24.03125 Z M 18 -5.078125 C 19.78125 -5.078125 21.117188 -5.363281 22.015625 -5.9375 C 22.910156 -6.519531 23.359375 -7.421875 23.359375 -8.640625 C 23.359375 -11.054688 21.570312 -12.265625 18 -12.265625 L 10.140625 -12.265625 L 10.140625 -5.078125 Z M 18 -5.078125 "/></g></g></g><g fill="#2a5f84" fill-opacity="1"><g transform="translate(152.682637, 166.470927)"><g><path d="M 3.453125 -29.109375 L 10.1875 -29.109375 L 10.1875 -5.484375 L 24.78125 -5.484375 L 24.78125 0 L 3.453125 0 Z M 3.453125 -29.109375 "/></g></g></g><g fill="#2a5f84" fill-opacity="1"><g transform="translate(193.464239, 166.470927)"><g><path d="M 16.375 0.5 C 12.21875 0.5 8.984375 -0.648438 6.671875 -2.953125 C 4.359375 -5.253906 3.203125 -8.539062 3.203125 -12.8125 L 3.203125 -29.109375 L 9.9375 -29.109375 L 9.9375 -13.0625 C 9.9375 -7.84375 12.097656 -5.234375 16.421875 -5.234375 C 18.523438 -5.234375 20.128906 -5.863281 21.234375 -7.125 C 22.347656 -8.382812 22.90625 -10.363281 22.90625 -13.0625 L 22.90625 -29.109375 L 29.5625 -29.109375 L 29.5625 -12.8125 C 29.5625 -8.539062 28.40625 -5.253906 26.09375 -2.953125 C 23.78125 -0.648438 20.539062 0.5 16.375 0.5 Z M 16.375 0.5 "/></g></g></g><g fill="#2a5f84" fill-opacity="1"><g transform="translate(241.894053, 166.470927)"><g><path d="M 25.984375 -5.40625 L 25.984375 0 L 3.453125 0 L 3.453125 -29.109375 L 25.453125 -29.109375 L 25.453125 -23.703125 L 10.140625 -23.703125 L 10.140625 -17.375 L 23.65625 -17.375 L 23.65625 -12.140625 L 10.140625 -12.140625 L 10.140625 -5.40625 Z M 25.984375 -5.40625 "/></g></g></g></svg>